# AST/ASF file generated using VICON BodyLanguage
# -----------------------------------------------
:version 1.10
:name VICON
:units
  mass 1.0
  length 0.45
  angle deg
:documentation
   .ast/.asf automatically generated from VICON data using
   VICON BodyBuilder and BodyLanguage model FoxedUp or BRILLIANT.MOD
:root
   order TX TY TZ RX RY RZ
   axis XYZ
   position 0 0 0  
   orientation 0 0 0 
:bonedata
  begin
     id 1 
     name lhipjoint
     direction 0.635376 -0.686425 0.353719 
     length 2.47244 
     axis 0 0 0  XYZ
  end
  begin
     id 2 
     name lfemur
     direction 0.34202 -0.939693 0  
     length 7.25268  
     axis 0 0 20  XYZ
    dof rx ry rz
    limits (-160.0 20.0)
           (-70.0 70.0)
           (-60.0 70.0)
  end
  begin
     id 3 
     name ltibia
     direction 0.34202 -0.939693 0   
     length 7.6767   
     axis 0 0 20   XYZ
    dof rx
    limits (-10.0 170.0)
  end
  begin
     id 4 
     name lfoot
     direction 0.0803374 -0.220725 0.972022   
     length 2.22945   
     axis -90 7.62852e-016 20   XYZ
    dof rx rz
    limits (-45.0 90.0)
           (-70.0 20.0)
  end
  begin
     id 5 
     name ltoes
     direction 1.53579e-011 -4.21994e-011 1   
     length 1.11848   
     axis -90 7.62852e-016 20   XYZ
    dof rx
    limits (-90.0 20.0)
  end
  begin
     id 6 
     name rhipjoint
     direction -0.664428 -0.664335 0.342336   
     length 2.55466  
     axis 0 0 0  XYZ 
  end
  begin
     id 7 
     name rfemur
     direction -0.34202 -0.939693 0   
     length 6.83172   
     axis 0 0 -20   XYZ
    dof rx ry rz
    limits (-160.0 20.0)
           (-70.0 70.0)
           (-70.0 60.0)
  end
  begin
     id 8 
     name rtibia
     direction -0.34202 -0.939693 0   
     length 7.62692   
     axis 0 0 -20   XYZ
    dof rx
    limits (-10.0 170.0)
 end
 begin
     id 9 
     name rfoot
     direction -0.0949276 -0.260811 0.960711   
     length 2.19684  
     axis -90 -7.62852e-016 -20   XYZ
    dof rx rz
    limits (-45.0 90.0)
           (-20.0 70.0)
  end
  begin
     id 10 
     name rtoes
     direction -1.53543e-011 -4.2183e-011 1   
     length 1.09848   
     axis -90 -7.62852e-016 -20   XYZ
    dof rx
    limits (-90.0 20.0)
  end
  begin
     id 11 
     name lowerback
     direction 0.0118782 0.999815 -0.0151555   
     length 2.15772   
     axis 0 0 0   XYZ
    dof rx ry rz
    limits (-20.0 45.0)
           (-30.0 30.0)
           (-30.0 30.0)
  end
  begin
     id 12 
     name upperback
     direction 0.00130825 0.999065 0.0432113   
     length 2.14863   
     axis 0 0 0   XYZ
    dof rx ry rz
    limits (-20.0 45.0)
           (-30.0 30.0)
           (-30.0 30.0)
  end
  begin
     id 13 
     name thorax
     direction -0.00347005 0.998773 0.0494011   
     length 2.14936   
     axis 0 0 0   XYZ
    dof rx ry rz
    limits (-20.0 45.0)
           (-30.0 30.0)
           (-30.0 30.0)
  end
  begin
     id 14 
     name lowerneck
     direction -0.0262159 0.99424 0.103921   
     length 1.69373   
     axis 0 0 0   XYZ
    dof rx ry rz
    limits (-20.0 45.0)
           (-30.0 30.0)
           (-30.0 30.0)
  end
  begin
     id 15 
     name upperneck
     direction 0.0353511 0.977394 -0.20845   
     length 1.70857   
     axis 0 0 0   XYZ
    dof rx ry rz
    limits (-20.0 45.0)
           (-30.0 30.0)
           (-30.0 30.0)
  end
  begin
     id 16
     name head
     direction 0.0139214 0.996594 -0.0812836  
     length 1.72777  
     axis 0 0 0   XYZ
    dof rx ry rz
    limits (-20.0 45.0)
           (-30.0 30.0)
           (-30.0 30.0)
  end
  begin
     id 17 
     name lclavicle
     direction 0.841247 0.537205 -0.0609508  
     length 3.55371  
     axis 0 0 0   XYZ
    dof ry rz
    limits (-20.0 10.0)
           (0.0 20.0)
  end
  begin
     id 18 
     name lhumerus
     direction 1 -4.48964e-011 1.60116e-018   
     length 4.91377   
     axis -180 -30 -90   XYZ
    dof rx ry rz
    limits (-60.0 90.0)
           (-90.0 90.0)
           (-90.0 90.0)
  end
  begin
     id 19
     name lradius
     direction 1 -4.48989e-011 -8.93847e-027   
     length 3.00291   
     axis -180 -30 -90   XYZ
    dof rx
    limits (-10.0 170.0)
  end
  begin
     id 20
     name lwrist
     direction 1 -4.48932e-011 -7.31504e-027   
     length 1.50145   
     axis 5.74121e-015 90 90   XYZ
    dof ry
    limits (-180.0 0.0)
 end
  begin
     id 21 
     name lhand
     direction 1 -4.48971e-011 -1.46301e-026   
     length 0.450922   
     axis 9.33524e-015 90 90   XYZ
    dof rx rz
    limits (-90.0 90.0)
           (-45.0 45.0)
  end
  begin
     id 22 
     name lfingers
     direction 1 -4.49039e-011 -2.92602e-026   
     length 0.363545   
     axis 1.86705e-014 90 90   XYZ
    dof rx
    limits (0.0 90.0)
  end
  begin
     id 23
     name lthumb
     direction 0.707107 -6.34941e-011 0.707107   
     length 0.52198   
     axis -90 45 2.85299e-015   XYZ
    dof rx rz
    limits (-45.0 45.0)
           (-45.0 45.0)
  end
  begin
     id 24 
     name rclavicle
     direction -0.825079 0.56158 -0.0622297   
     length 3.39909  
     axis 0 0 0   XYZ 
    dof ry rz
    limits (-10.0 20.0)
           (-20.0 0.0)
  end
  begin
     id 25 
     name rhumerus
     direction -1 -4.48965e-011 1.61691e-027  
     length 4.86725   
     axis -180 30 90   XYZ
    dof rx ry rz
    limits (-90.0 60.0)
           (-90.0 90.0)
           (-90.0 90.0)
  end
  begin
     id 26 
     name rradius
     direction -1 -4.48964e-011 -2.25776e-027   
     length 3.17144   
     axis -180 30 90   XYZ
    dof rx
    limits (-10.0 170.0)
  end
  begin
     id 27 
     name rwrist
     direction -1 -4.48961e-011 -7.31504e-027   
     length 1.58572   
     axis 5.74121e-015 -90 -90   XYZ
    dof ry
    limits (-180.0 0.0)
  end
  begin
     id 28
     name rhand
     direction -1 -4.49013e-011 -1.46301e-026   
     length 0.419368   
     axis 9.33524e-015 -90 -90   XYZ
    dof rx rz
    limits (-90.0 90.0)
           (-45.0 45.0)
  end
  begin
     id 29
     name rfingers
     direction -1 -4.489e-011 -2.92602e-026   
     length 0.338105   
     axis 1.86705e-014 -90 -90   XYZ
    dof rx
    limits (0.0 90.0)
  end
  begin
     id 30
     name rthumb
     direction -0.707107 -6.35022e-011 0.707107   
     length 0.485453   
     axis -90 -45 -2.85299e-015   XYZ
    dof rx rz
    limits (-45.0 45.0)
           (-45.0 45.0)
  end
:hierarchy
  begin
    root lhipjoint rhipjoint lowerback
    lhipjoint lfemur
    lfemur ltibia
    ltibia lfoot
    lfoot ltoes
    rhipjoint rfemur
    rfemur rtibia
    rtibia rfoot
    rfoot rtoes
    lowerback upperback
    upperback thorax
    thorax lowerneck lclavicle rclavicle
    lowerneck upperneck
    upperneck head
    lclavicle lhumerus
    lhumerus lradius
    lradius lwrist
    lwrist lhand lthumb
    lhand lfingers
    rclavicle rhumerus
    rhumerus rradius
    rradius rwrist
    rwrist rhand rthumb
    rhand rfingers
  end

#!OML:ASF H:\Swim 2\Project 1\Capture day 1\Session 1\male.ASF
:FULLY-SPECIFIED
:DEGREES
686
root 7.64385 9.83591 11.9261 95.694 2.56803 0.226553
lowerback -0.484878 4.14592 -4.27343
upperback -5.48819 5.72495 2.67618
thorax -6.1543 3.20263 4.87068
lowerneck -21.5204 0.0814302 7.0447
upperneck 34.8606 -0.175919 -6.50041
head 15.9947 -0.00917569 -4.08375
rclavicle 4.29375e-014 -1.43125e-014
rhumerus 81.991 -31.0542 -13.6689
rradius 26.8339
rwrist 3.30442
rhand -30.1785 -1.91676
rfingers 7.12502
rthumb -3.48982 -31.8679
lclavicle 4.29375e-014 -1.43125e-014
lhumerus -84.7368 -28.4548 121.374
lradius 50.7049
lwrist 13.4451
lhand -44.325 -29.0228
lfingers 7.12502
lthumb -17.134 0.241754
rfemur -22.8037 6.72288 23.6455
rtibia 29.3061
rfoot 43.6638 4.96095
rtoes 24.5698
lfemur -34.9155 -8.73943 -17.5911
ltibia 30.8865
lfoot 9.20255 15.0688
ltoes 31.363
687
root 7.64647 9.83149 11.9073 95.6583 2.49914 0.166008
lowerback -0.515108 4.22341 -4.31376
upperback -5.5008 5.83474 2.71695
thorax -6.17382 3.26276 4.92993
lowerneck -21.5767 0.0436846 7.03362
upperneck 34.8808 -0.26212 -6.41897
head 16.0098 -0.0339755 -4.06433
rclavicle 7.95139e-015 1.86858e-014
rhumerus 81.1541 -31.0319 -12.3705
rradius 26.8846
rwrist 4.39032
rhand -30.2938 -1.57772
rfingers 7.12502
rthumb -3.60121 -31.527
lclavicle 7.95139e-015 1.86858e-014
lhumerus -85.9983 -27.5608 123.339
lradius 50.2097
lwrist 12.2938
lhand -43.0644 -28.9502
lfingers 7.12502
lthumb -15.9204 0.415389
rfemur -23.4469 6.92523 23.4974
rtibia 28.8812
rfoot 42.699 4.41378
rtoes 24.4069
lfemur -34.374 -8.24803 -18.1727
ltibia 31.7193
lfoot 9.4699 14.1358
ltoes 31.096
688
root 7.64936 9.82655 11.8893 95.6342 2.42649 0.119991
lowerback -0.560248 4.30952 -4.36867
upperback -5.51866 5.95706 2.75931
thorax -6.1943 3.3304 4.99901
lowerneck -21.6338 -0.0163636 6.99939
upperneck 34.9072 -0.377515 -6.32075
head 16.0254 -0.0708914 -4.03913
rclavicle 5.88403e-014 9.34288e-015
rhumerus 80.4052 -31.0246 -11.2456
rradius 26.9046
rwrist 5.47553
rhand -30.3716 -1.18598
rfingers 7.12502
rthumb -3.67627 -31.134
lclavicle 5.88403e-014 9.34288e-015
lhumerus -87.1727 -26.7453 125.166
lradius 49.7481
lwrist 10.9146
lhand -41.7207 -29.1984
lfingers 7.12502
lthumb -14.6261 0.265831
rfemur -24.1914 7.21227 23.2954
rtibia 28.4287
rfoot 41.7333 3.88274
rtoes 24.2954
lfemur -33.7964 -7.78093 -18.7354
ltibia 32.6163
lfoot 9.84973 13.2179
ltoes 30.9433
689
root 7.65222 9.82149 11.8728 95.6215 2.34932 0.0972635
lowerback -0.618013 4.40098 -4.44058
upperback -5.53957 6.08731 2.80428
thorax -6.21467 3.40331 5.0806
lowerneck -21.6933 -0.0882922 6.96552
upperneck 34.9358 -0.499384 -6.25081
head 16.0419 -0.113936 -4.02773
rclavicle -9.85972e-014 -1.13307e-014
rhumerus 79.7665 -31.041 -10.3241
rradius 26.8918
rwrist 6.52627
rhand -30.4388 -0.751023
rfingers 7.12502
rthumb -3.74119 -30.6979
lclavicle -9.85972e-014 -1.13307e-014
lhumerus -88.2697 -26.0177 126.846
lradius 49.3346
lwrist 9.30389
lhand -40.398 -29.8357
lfingers 7.12502
lthumb -13.3514 -0.28351
rfemur -25.0208 7.58295 23.0355
rtibia 27.9468
rfoot 40.8072 3.38882
rtoes 24.1734
lfemur -33.1761 -7.33174 -19.2779
ltibia 33.5285
lfoot 10.4084 12.3079
ltoes 31.1903
690
root 7.65497 9.81693 11.8592 95.6094 2.26946 0.0998303
lowerback -0.671351 4.49809 -4.52571
upperback -5.56013 6.22531 2.85252
thorax -6.24088 3.48116 5.17206
lowerneck -21.7567 -0.167051 6.93232
upperneck 34.9679 -0.618607 -6.21437
head 16.0611 -0.160073 -4.03093
rclavicle -7.31528e-014 -1.96797e-014
rhumerus 79.2439 -31.0902 -9.61398
rradius 26.8471
rwrist 7.52525
rhand -30.5055 -0.245204
rfingers 7.12502
rthumb -3.80559 -30.191
lclavicle -7.31528e-014 -1.96797e-014
lhumerus -89.2845 -25.3719 128.326
lradius 48.9745
lwrist 7.44775
lhand -39.2027 -31.0092
lfingers 7.12502
lthumb -12.1991 -1.38491
rfemur -25.896 8.0311 22.7198
rtibia 27.4121
rfoot 39.9702 2.92785
rtoes 24.0396
lfemur -32.4946 -6.88266 -19.7989
ltibia 34.4069
lfoot 11.1007 11.4364
ltoes 31.6192
691
root 7.65762 9.81359 11.8501 95.5881 2.18769 0.134128
lowerback -0.704733 4.59953 -4.61603
upperback -5.57901 6.36865 2.90179
thorax -6.27896 3.56221 5.26541
lowerneck -21.8164 -0.242058 6.92035
upperneck 34.9979 -0.715567 -6.24289
head 16.0799 -0.203151 -4.06207
rclavicle -5.56597e-014 -6.36111e-015
rhumerus 78.8314 -31.1692 -9.11088
rradius 26.7733
rwrist 8.4967
rhand -30.6106 0.231185
rfingers 7.12502
rthumb -3.9071 -29.7127
lclavicle -5.56597e-014 -6.36111e-015
lhumerus -90.2192 -24.8139 129.584
lradius 48.6586
lwrist 5.32777
lhand -38.224 -32.6235
lfingers 7.12502
lthumb -11.2553 -2.94546
rfemur -26.7746 8.53055 22.3548
rtibia 26.7935
rfoot 39.247 2.49866
rtoes 23.8495
lfemur -31.7289 -6.44462 -20.2916
ltibia 35.202
lfoot 11.8997 10.6311
ltoes 32.1504
692
root 7.66026 9.81202 11.8474 95.5487 2.11292 0.20364
lowerback -0.705747 4.70463 -4.69725
upperback -5.59159 6.51599 2.95243
thorax -6.3292 3.64478 5.35215
lowerneck -21.8813 -0.315699 6.91491
upperneck 35.0361 -0.798745 -6.309
head 16.1048 -0.244519 -4.10894
rclavicle -5.08889e-014 -2.50469e-014
rhumerus 78.573 -31.2825 -8.88507
rradius 26.6575
rwrist 9.48785
rhand -30.743 0.68874
rfingers 7.12502
rthumb -4.03498 -29.2528
lclavicle -5.08889e-014 -2.50469e-014
lhumerus -91.043 -24.3306 130.542
lradius 48.3516
lwrist 2.89409
lhand -37.5031 -34.5372
lfingers 7.12502
lthumb -10.56 -4.82244
rfemur -27.6095 9.05381 21.958
rtibia 26.0602
rfoot 38.6573 2.05997
rtoes 23.6485
lfemur -30.8774 -6.00448 -20.745
ltibia 35.8913
lfoot 12.729 9.87536
ltoes 32.6311
693
root 7.6628 9.81282 11.8519 95.498 2.04161 0.318043
lowerback -0.675976 4.81016 -4.76578
upperback -5.60086 6.66275 2.9994
thorax -6.39204 3.72628 5.42514
lowerneck -21.9408 -0.387655 6.91567
upperneck 35.0717 -0.868423 -6.40867
head 16.128 -0.284086 -4.16895
rclavicle -5.08889e-014 -6.95746e-015
rhumerus 78.4777 -31.4188 -8.95703
rradius 26.503
rwrist 10.5263
rhand -30.8906 1.09872
rfingers 7.12502
rthumb -4.17747 -28.8401
lclavicle -5.08889e-014 -6.95746e-015
lhumerus -91.7411 -23.9465 131.214
lradius 47.9985
lwrist 0.201838
lhand -37.1712 -36.5993
lfingers 7.12502
lthumb -10.2398 -6.86854
rfemur -28.3819 9.56316 21.5348
rtibia 25.202
rfoot 38.1869 1.58919
rtoes 23.3943
lfemur -29.9647 -5.55931 -21.1598
ltibia 36.4738
lfoot 13.5437 9.13717
ltoes 32.7968
694
root 7.66505 9.81583 11.8618 95.4451 1.97165 0.479848
lowerback -0.626843 4.91352 -4.82187
upperback -5.6081 6.80562 3.04022
thorax -6.4614 3.80488 5.48302
lowerneck -21.9955 -0.465772 6.9006
upperneck 35.1082 -0.941991 -6.50289
head 16.1501 -0.326312 -4.22444
rclavicle -2.22639e-014 -9.34288e-015
rhumerus 78.5582 -31.5701 -9.34839
rradius 26.3109
rwrist 11.6361
rhand -31.0313 1.4268
rfingers 7.12502
rthumb -4.31335 -28.5093
lclavicle -2.22639e-014 -9.34288e-015
lhumerus -92.3002 -23.667 131.591
lradius 47.5612
lwrist -2.67286
lhand -37.2537 -38.6502
lfingers 7.12502
lthumb -10.3194 -8.92338
rfemur -29.0809 10.0297 21.0914
rtibia 24.2243
rfoot 37.8308 1.07292
rtoes 23.1969
lfemur -29.0386 -5.12611 -21.5318
ltibia 36.9816
lfoot 14.3449 8.40143
ltoes 32.6978
695
root 7.66677 9.82056 11.8747 95.3878 1.89777 0.692812
lowerback -0.560484 5.01279 -4.87084
upperback -5.61308 6.94185 3.07432
thorax -6.53587 3.8794 5.52848
lowerneck -22.0345 -0.555181 6.86604
upperneck 35.1396 -1.02735 -6.58473
head 16.1648 -0.374069 -4.27249
rclavicle -6.67916e-014 -9.34288e-015
rhumerus 78.7616 -31.7262 -9.96514
rradius 26.095
rwrist 12.7525
rhand -31.1537 1.64832
rfingers 7.12502
rthumb -4.43156 -28.2853
lclavicle -6.67916e-014 -9.34288e-015
lhumerus -92.7271 -23.5022 131.705
lradius 47.0225
lwrist -5.56579
lhand -37.708 -40.4549
lfingers 7.12502
lthumb -10.7576 -10.7504
rfemur -29.6951 10.4406 20.628
rtibia 23.1601
rfoot 37.5611 0.529067
rtoes 23.0157
lfemur -28.1339 -4.71811 -21.8653
ltibia 37.454
lfoot 15.1544 7.65331
ltoes 32.3892
696
root 7.66774 9.82645 11.889 95.3271 1.82098 0.960103
lowerback -0.484688 5.10836 -4.91292
upperback -5.61691 7.07234 3.10244
thorax -6.61229 3.95034 5.56301
lowerneck -22.0569 -0.669519 6.79226
upperneck 35.1779 -1.14779 -6.62341
head 16.1761 -0.434657 -4.30092
rclavicle -1.04958e-013 -1.94809e-014
rhumerus 79.0293 -31.8811 -10.7147
rradius 25.8752
rwrist 13.8127
rhand -31.2346 1.75035
rfingers 7.12502
rthumb -4.50963 -28.1816
lclavicle -1.04958e-013 -1.94809e-014
lhumerus -93.0317 -23.4584 131.594
lradius 46.3739
lwrist -8.26408
lhand -38.3819 -41.9349
lfingers 7.12502
lthumb -11.4076 -12.2652
rfemur -30.2195 10.7917 20.1499
rtibia 22.0521
rfoot 37.37 -0.0214009
rtoes 22.8748
lfemur -27.2893 -4.36123 -22.1569
ltibia 37.9323
lfoot 16.0079 6.89795
ltoes 31.9657
697
root 7.66772 9.83285 11.9035 95.2581 1.74161 1.27982
lowerback -0.401608 5.2018 -4.95206
upperback -5.61972 7.19943 3.12745
thorax -6.69081 4.01922 5.59183
lowerneck -22.052 -0.803919 6.68697
upperneck 35.2214 -1.2923 -6.63543
head 16.1817 -0.504859 -4.31585
rclavicle 6.67916e-014 3.26007e-014
rhumerus 79.3161 -32.0274 -11.5211
rradius 25.6631
rwrist 14.7758
rhand -31.2735 1.71728
rfingers 7.12502
rthumb -4.54721 -28.2139
lclavicle 6.67916e-014 3.26007e-014
lhumerus -93.2358 -23.5328 131.304
lradius 45.6266
lwrist -10.5486
lhand -39.1127 -42.8783
lfingers 7.12502
lthumb -12.1123 -13.2489
rfemur -30.6465 11.0841 19.6651
rtibia 20.9507
rfoot 37.2497 -0.548158
rtoes 22.7687
lfemur -26.5228 -4.06422 -22.4084
ltibia 38.431
lfoot 17.0092 6.12882
ltoes 31.8092
698
root 7.66697 9.83929 11.9175 95.1887 1.66381 1.65889
lowerback -0.322315 5.28949 -4.98022
upperback -5.62471 7.31894 3.14983
thorax -6.76675 4.08357 5.6123
lowerneck -22.0218 -0.951225 6.55642
upperneck 35.2695 -1.44905 -6.63186
head 16.1829 -0.580639 -4.32107
rclavicle -3.81667e-014 2.38542e-015
rhumerus 79.5899 -32.1636 -12.3319
rradius 25.4691
rwrist 15.5903
rhand -31.2521 1.63826
rfingers 7.12502
rthumb -4.52662 -28.2934
lclavicle -3.81667e-014 2.38542e-015
lhumerus -93.3336 -23.7096 130.826
lradius 44.7875
lwrist -12.2359
lhand -39.6808 -43.283
lfingers 7.12502
lthumb -12.6601 -13.6867
rfemur -30.9792 11.3108 19.1857
rtibia 19.8991
rfoot 37.1816 -1.07234
rtoes 22.6981
lfemur -25.8623 -3.83728 -22.619
ltibia 38.9473
lfoot 18.1696 5.35569
ltoes 31.8595
699
root 7.66498 9.84505 11.9307 95.1086 1.59323 2.08623
lowerback -0.247032 5.37822 -5.0034
upperback -5.63025 7.44029 3.1726
thorax -6.84083 4.14856 5.63023
lowerneck -21.967 -1.10772 6.41606
upperneck 35.3319 -1.61343 -6.62695
head 16.185 -0.659667 -4.3253
rclavicle -5.08889e-014 -1.51076e-014
rhumerus 79.7423 -32.3031 -12.9787
rradius 25.3157
rwrist 16.1514
rhand -31.1991 1.49644
rfingers 7.12502
rthumb -4.47536 -28.4363
lclavicle -5.08889e-014 -1.51076e-014
lhumerus -93.3363 -23.9987 130.201
lradius 43.8492
lwrist -13.1964
lhand -40.0119 -43.1725
lfingers 7.12502
lthumb -12.9793 -13.5962
rfemur -31.2054 11.4436 18.7505
rtibia 18.9431
rfoot 37.1406 -1.60326
rtoes 22.6576
lfemur -25.2955 -3.66761 -22.7858
ltibia 39.4539
lfoot 19.4789 4.60446
ltoes 32.08
700
root 7.66182 9.84953 11.9423 95.0111 1.54421 2.54877
lowerback -0.171898 5.46895 -5.00549
upperback -5.63293 7.56522 3.20045
thorax -6.9102 4.21407 5.64137
lowerneck -21.901 -1.26408 6.27684
upperneck 35.4092 -1.77269 -6.6332
head 16.1925 -0.73717 -4.33411
rclavicle 3.49861e-014 -8.74653e-015
rhumerus 79.7883 -32.4487 -13.4743
rradius 25.1979
rwrist 16.477
rhand -31.1165 1.33523
rfingers 7.12502
rthumb -4.3956 -28.5992
lclavicle 3.49861e-014 -8.74653e-015
lhumerus -93.2233 -24.381 129.394
lradius 42.7986
lwrist -13.4849
lhand -40.0966 -42.6654
lfingers 7.12502
lthumb -13.0609 -13.0943
rfemur -31.3181 11.4572 18.4076
rtibia 18.1224
rfoot 37.1013 -2.15031
rtoes 22.6548
lfemur -24.8163 -3.55997 -22.8952
ltibia 39.9161
lfoot 20.8695 3.87504
ltoes 32.3813
